{
  "asset": {
    "version": "2.0",
    "generator": "THREE.GLTFExporter r167"
  },
  "scenes": [
    {
      "name": "Scene",
      "nodes": [
        2
      ]
    }
  ],
  "scene": 0,
  "nodes": [
    {
      "name": "Node1",
      "extras": {
        "name": "Node1"
      },
      "mesh": 0
    },
    {
      "name": "Node0",
      "extras": {
        "name": "Node0"
      },
      "children": [
        0
      ]
    },
    {
      "matrix": [
        0.1,
        0,
        0,
        0,
        0,
        2.2204460492503132e-17,
        -0.1,
        0,
        0,
        0.1,
        2.2204460492503132e-17,
        0,
        0,
        0,
        0,
        1
      ],
      "name": "Dorchester3D.com_19929_keel-billed_toucan_v1.glb",
      "children": [
        1
      ]
    }
  ],
  "bufferViews": [
    {
      "buffer": 0,
      "byteOffset": 0,
      "byteLength": 434136,
      "target": 34962,
      "byteStride": 12
    },
    {
      "buffer": 0,
      "byteOffset": 434136,
      "byteLength": 434136,
      "target": 34962,
      "byteStride": 12
    },
    {
      "buffer": 0,
      "byteOffset": 868272,
      "byteLength": 434112,
      "target": 34963
    }
  ],
  "buffers": [
    {
      "byteLength": 1302384,
      "uri": "data:application/octet-stream;base64,"
    }
  ],
  "accessors": [
    {
      "bufferView": 0,
      "componentType": 5126,
      "count": 36178,
      "max": [
        8.410200119018555,
        26.745500564575195,
        29.63479995727539
      ],
      "min": [
        -8.410400390625,
        -22.016300201416016,
        0.041099999099969864
      ],
      "type": "VEC3"
    },
    {
      "bufferView": 1,
      "componentType": 5126,
      "count": 36178,
      "max": [
        0.9998999834060669,
        0.9987999796867371,
        0.9998999834060669
      ],
      "min": [
        -1,
        -1,
        -1
      ],
      "type": "VEC3"
    },
    {
      "bufferView": 2,
      "componentType": 5123,
      "count": 217056,
      "max": [
        36177
      ],
      "min": [
        0
      ],
      "type": "SCALAR"
    }
  ],
  "materials": [
    {
      "pbrMetallicRoughness": {
        "baseColorFactor": [
          0.8,
          0.8,
          0.8,
          1
        ],
        "metallicFactor": 0,
        "roughnessFactor": 0.4
      },
      "doubleSided": true,
      "name": "x1"
    }
  ],
  "meshes": [
    {
      "primitives": [
        {
          "mode": 4,
          "attributes": {
            "POSITION": 0,
            "NORMAL": 1
          },
          "indices": 2,
          "material": 0
        }
      ]
    }
  ]
}