{
    "asset" : {
        "generator" : "Khronos glTF Blender I/O v1.8.19",
        "version" : "2.0"
    },
    "scene" : 0,
    "scenes" : [
        {
            "name" : "Scene",
            "nodes" : [
                2
            ]
        }
    ],
    "nodes" : [
        {
            "mesh" : 0,
            "name" : "Node1"
        },
        {
            "children" : [
                0
            ],
            "name" : "Node0"
        },
        {
            "children" : [
                1
            ],
            "name" : "Dorchester3D.com_19929_keel-billed_toucan_v1.glb",
            "rotation" : [
                -0.7071068286895752,
                0,
                0,
                0.7071068286895752
            ],
            "scale" : [
                0.10000000149011612,
                0.10000000149011612,
                0.10000000149011612
            ]
        }
    ],
    "materials" : [
        {
            "doubleSided" : true,
            "name" : "x1",
            "pbrMetallicRoughness" : {
                "baseColorFactor" : [
                    0.800000011920929,
                    0.800000011920929,
                    0.800000011920929,
                    1
                ],
                "metallicFactor" : 0,
                "roughnessFactor" : 0.4000000059604645
            }
        }
    ],
    "meshes" : [
        {
            "name" : "Mesh_0",
            "primitives" : [
                {
                    "attributes" : {
                        "POSITION" : 0,
                        "NORMAL" : 1
                    },
                    "indices" : 2,
                    "material" : 0
                }
            ]
        }
    ],
    "accessors" : [
        {
            "bufferView" : 0,
            "componentType" : 5126,
            "count" : 36188,
            "max" : [
                8.410282135009766,
                26.291481018066406,
                17.562623977661133
            ],
            "min" : [
                -8.410318374633789,
                -22.470319747924805,
                -12.031076431274414
            ],
            "type" : "VEC3"
        },
        {
            "bufferView" : 1,
            "componentType" : 5126,
            "count" : 36188,
            "type" : "VEC3"
        },
        {
            "bufferView" : 2,
            "componentType" : 5123,
            "count" : 217056,
            "type" : "SCALAR"
        }
    ],
    "bufferViews" : [
        {
            "buffer" : 0,
            "byteLength" : 434256,
            "byteOffset" : 0
        },
        {
            "buffer" : 0,
            "byteLength" : 434256,
            "byteOffset" : 434256
        },
        {
            "buffer" : 0,
            "byteLength" : 434112,
            "byteOffset" : 868512
        }
    ],
    "buffers" : [
        {
            "byteLength" : 1302624,
            "uri" : "data:application/octet-stream;base64,"
        }
    ]
}
